<svg id="Layer_1" data-name="Layer 1" xmlns="http://www.w3.org/2000/svg" viewBox="0 0 41.59 76.13"><defs><style>.cls-1,.cls-10,.cls-11,.cls-12,.cls-13,.cls-14,.cls-15,.cls-16,.cls-17,.cls-18,.cls-19,.cls-2,.cls-20,.cls-21,.cls-22,.cls-23,.cls-24,.cls-25,.cls-26,.cls-3,.cls-4,.cls-5,.cls-6,.cls-7,.cls-8,.cls-9{fill:none;stroke-linecap:round;stroke-linejoin:round;}.cls-1,.cls-10,.cls-11,.cls-12,.cls-13,.cls-14,.cls-15,.cls-16,.cls-17,.cls-18,.cls-19,.cls-2,.cls-20,.cls-21,.cls-22,.cls-23,.cls-24,.cls-3,.cls-4,.cls-5,.cls-6,.cls-7,.cls-8,.cls-9{stroke:#1a62ff;}.cls-1{stroke-width:41.59px;opacity:0;}.cls-2{stroke-width:39.99px;opacity:0;}.cls-3{stroke-width:38.39px;opacity:0;}.cls-4{stroke-width:36.79px;opacity:0;}.cls-5{stroke-width:35.19px;opacity:0;}.cls-6{stroke-width:33.59px;opacity:0;}.cls-7{stroke-width:31.99px;opacity:0;}.cls-8{stroke-width:30.39px;opacity:0.01;}.cls-9{stroke-width:28.79px;opacity:0.01;}.cls-10{stroke-width:27.19px;opacity:0.01;}.cls-11{stroke-width:25.59px;opacity:0.01;}.cls-12{stroke-width:23.99px;opacity:0.01;}.cls-13{stroke-width:22.39px;opacity:0.02;}.cls-14{stroke-width:20.8px;opacity:0.02;}.cls-15{stroke-width:19.2px;opacity:0.02;}.cls-16{stroke-width:17.6px;opacity:0.03;}.cls-17{stroke-width:16px;opacity:0.03;}.cls-18{stroke-width:14.4px;opacity:0.04;}.cls-19{stroke-width:12.8px;opacity:0.04;}.cls-20{stroke-width:11.2px;opacity:0.05;}.cls-21{stroke-width:9.6px;opacity:0.06;}.cls-22{stroke-width:8px;opacity:0.07;}.cls-23{stroke-width:6.4px;opacity:0.11;}.cls-24{stroke-width:4.8px;}.cls-25{stroke:#e0eaff;stroke-width:2.88px;}.cls-26{stroke:#fff;stroke-width:0.96px;}</style></defs><title>beam</title><line class="cls-1" x1="20.8" y1="55.33" x2="20.8" y2="20.8"/><line class="cls-2" x1="20.8" y1="55.33" x2="20.8" y2="20.8"/><line class="cls-3" x1="20.8" y1="55.33" x2="20.8" y2="20.8"/><line class="cls-4" x1="20.8" y1="55.33" x2="20.8" y2="20.8"/><line class="cls-5" x1="20.8" y1="55.33" x2="20.8" y2="20.8"/><line class="cls-6" x1="20.8" y1="55.33" x2="20.8" y2="20.8"/><line class="cls-7" x1="20.8" y1="55.33" x2="20.8" y2="20.8"/><line class="cls-8" x1="20.8" y1="55.33" x2="20.8" y2="20.8"/><line class="cls-9" x1="20.8" y1="55.33" x2="20.8" y2="20.8"/><line class="cls-10" x1="20.8" y1="55.33" x2="20.8" y2="20.8"/><line class="cls-11" x1="20.8" y1="55.33" x2="20.8" y2="20.8"/><line class="cls-12" x1="20.8" y1="55.33" x2="20.8" y2="20.8"/><line class="cls-13" x1="20.8" y1="55.33" x2="20.8" y2="20.8"/><line class="cls-14" x1="20.8" y1="55.33" x2="20.8" y2="20.8"/><line class="cls-15" x1="20.8" y1="55.33" x2="20.8" y2="20.8"/><line class="cls-16" x1="20.8" y1="55.33" x2="20.8" y2="20.8"/><line class="cls-17" x1="20.8" y1="55.33" x2="20.8" y2="20.8"/><line class="cls-18" x1="20.8" y1="55.33" x2="20.8" y2="20.8"/><line class="cls-19" x1="20.8" y1="55.33" x2="20.8" y2="20.8"/><line class="cls-20" x1="20.8" y1="55.33" x2="20.8" y2="20.8"/><line class="cls-21" x1="20.8" y1="55.33" x2="20.8" y2="20.8"/><line class="cls-22" x1="20.8" y1="55.33" x2="20.8" y2="20.8"/><line class="cls-23" x1="20.8" y1="55.33" x2="20.8" y2="20.8"/><line class="cls-24" x1="20.8" y1="55.33" x2="20.8" y2="20.8"/><line class="cls-25" x1="20.8" y1="55.33" x2="20.8" y2="20.8"/><line class="cls-26" x1="20.8" y1="55.33" x2="20.8" y2="20.8"/></svg>